<svg xmlns="http://www.w3.org/2000/svg" viewBox="0 0 44 64"><defs><style>.cls-1{fill:#ffda00;}.cls-2{fill:#ccae00;}.cls-3{fill:#78909c;}.cls-4{fill:#cfd8dd;}.cls-5{fill:#b0bec5;}.cls-6{fill:#fff;opacity:0.4;}</style></defs><title>Lightbulb</title><g id="Layer_2" data-name="Layer 2"><g id="Layer_1-2" data-name="Layer 1"><path class="cls-1" d="M44,22a22,22,0,0,1-7.06,16.15A12.25,12.25,0,0,0,33.36,44,11.54,11.54,0,0,0,33,46l-.75,10.24a4,4,0,0,1-4,3.71H15.72a4,4,0,0,1-4-3.71L11,46.19A10.68,10.68,0,0,0,10.61,44,12.56,12.56,0,0,0,7,38.09,22,22,0,1,1,44,22Z"/><path class="cls-2" d="M27,46H25V32H19V46H17V32H16a3,3,0,1,1,3-3v1h6V29a3,3,0,1,1,3,3H27Zm0-16h1a1,1,0,1,0-1-1ZM16,28a1,1,0,0,0,0,2h1V29A1,1,0,0,0,16,28Z"/><circle class="cls-3" cx="22" cy="60" r="4"/><path class="cls-4" d="M33.36,44A11.54,11.54,0,0,0,33,46l-.13,1.82L32.58,52l-.3,4.13v.15a4,4,0,0,1-4,3.71H15.72a4.07,4.07,0,0,1-1.67-.36,4,4,0,0,1-2.32-3.35l0-.28-.29-4-.3-4L11,46.19A10.68,10.68,0,0,0,10.61,44Z"/><path class="cls-5" d="M33.36,44A11.54,11.54,0,0,0,33,46l-.13,1.82L11.42,52l-.3-4,20.72-4Z"/><path class="cls-5" d="M32.58,52l-.3,4.13-18.23,3.5a4,4,0,0,1-2.32-3.35l0-.28Z"/><path class="cls-6" d="M32.79,14.73a17,17,0,0,0-7-.15A16.8,16.8,0,0,0,12.22,30v.11a1,1,0,0,1-1.82.54A14.66,14.66,0,0,1,33.75,13.08,1,1,0,0,1,32.79,14.73Z"/></g></g></svg>